<?xml version="1.0" standalone="no"?>
<!DOCTYPE svg PUBLIC "-//W3C//DTD SVG 20010904//EN"
 "http://www.w3.org/TR/2001/REC-SVG-20010904/DTD/svg10.dtd">
<svg version="1.0" xmlns="http://www.w3.org/2000/svg"
 width="774.000000pt" height="774.000000pt" viewBox="0 0 774.000000 774.000000"
 preserveAspectRatio="xMidYMid meet">
<metadata>
Created by potrace 1.14, written by Peter Selinger 2001-2017
</metadata>
<g transform="translate(0.000000,774.000000) scale(0.100000,-0.100000)"
fill="#000000" stroke="none">
<path d="M3469 7394 c-1530 -139 -2767 -1247 -3063 -2745 -195 -983 55 -1997
691 -2804 106 -135 600 -631 739 -743 525 -421 1142 -674 1809 -743 156 -16
518 -16 665 0 1030 110 1918 637 2489 1476 287 421 486 935 556 1431 25 177
30 263 29 514 -2 479 -89 887 -283 1334 -109 250 -310 585 -458 761 -32 39
-110 133 -173 210 -356 437 -746 749 -1225 981 -553 268 -1177 383 -1776 328z
m671 -484 c447 -63 839 -206 1205 -439 187 -119 326 -232 490 -396 242 -241
404 -466 553 -765 213 -425 312 -842 312 -1306 0 -666 -196 -1251 -599 -1792
-106 -142 -362 -406 -501 -516 -362 -287 -800 -492 -1252 -585 -221 -45 -338
-56 -608 -55 -257 0 -408 16 -625 65 -936 213 -1700 852 -2070 1731 -156 370
-228 726 -228 1133 0 486 99 909 314 1336 141 283 424 665 539 728 103 58 239
14 292 -94 33 -66 36 -31 -72 -922 -11 -90 -29 -236 -40 -325 -10 -90 -31
-255 -44 -368 -14 -113 -53 -432 -87 -710 -33 -278 -67 -557 -75 -620 -36
-286 -31 -340 35 -413 123 -136 354 -82 399 95 6 24 34 234 62 468 28 234 59
498 70 588 11 89 29 237 40 330 47 391 53 413 131 493 96 98 236 131 369 85
77 -27 170 -120 200 -201 25 -69 24 -149 -5 -380 -9 -71 -20 -161 -24 -200 -5
-38 -41 -338 -81 -664 -47 -388 -69 -610 -65 -638 10 -66 60 -133 124 -165 89
-45 186 -35 260 28 58 50 76 100 95 259 23 193 51 423 81 665 13 113 38 320
55 460 64 532 65 534 156 620 77 73 129 94 234 95 72 0 94 -4 141 -26 31 -15
75 -43 97 -64 47 -42 98 -136 107 -199 4 -27 -5 -143 -24 -302 -34 -279 -80
-652 -111 -909 -71 -583 -70 -570 -54 -627 12 -39 29 -65 63 -98 91 -89 222
-94 312 -13 56 50 78 100 89 196 5 45 14 116 20 157 5 41 23 188 40 325 89
751 120 1008 130 1085 19 148 81 244 194 303 55 28 70 31 151 32 79 0 97 -3
149 -29 73 -36 131 -94 165 -166 23 -48 26 -67 25 -155 0 -55 -15 -215 -32
-355 -18 -140 -40 -313 -48 -385 -9 -71 -22 -179 -29 -240 -74 -619 -88 -744
-82 -776 11 -57 60 -124 114 -156 40 -24 59 -28 119 -28 61 0 77 4 119 30 66
41 103 102 116 191 5 38 25 197 44 354 19 157 48 400 65 540 17 140 38 311 46
380 8 69 20 163 25 210 35 285 28 388 -39 555 -74 187 -240 356 -430 439 -98
43 -159 56 -283 63 -183 9 -342 -33 -490 -129 l-62 -40 -40 47 c-85 99 -249
199 -397 241 -102 29 -330 27 -430 -5 -87 -27 -170 -66 -235 -111 l-46 -32
-83 80 c-124 119 -247 184 -416 218 -96 19 -259 15 -347 -9 -50 -13 -53 -13
-53 5 0 24 145 1228 165 1372 25 178 55 206 304 286 239 77 511 129 746 143
130 7 415 -4 545 -23z"/>
</g>
</svg>
